<?xml version="1.0" encoding="utf-8"?>
<!-- Generator: Adobe Illustrator 24.0.0, SVG Export Plug-In . SVG Version: 6.00 Build 0)  -->
<svg version="1.1" id="Layer_1" xmlns="http://www.w3.org/2000/svg" xmlns:xlink="http://www.w3.org/1999/xlink" x="0px" y="0px"
	 viewBox="0 0 236.8 150" style="enable-background:new 0 0 236.8 150;" xml:space="preserve">
<style type="text/css">
	.st0{fill-rule:evenodd;clip-rule:evenodd;fill:#A59C88;}
	.st1{fill-rule:evenodd;clip-rule:evenodd;}
	.st2{fill:#FFFFFF;}
</style>
<g id="surface2" transform="matrix(1,0,0,1,0,0)">
	<path class="st0" d="M118.3,4c-4.1,0-8.2,0.6-12.2,1.9C93.3,10,80.4,14.1,67.5,18.3c-12.9,4.2-25.7,8.3-38.3,12.4L15.9,35
		c-2.4,0.8-4.5,2-6.3,3.6c-1.8,1.6-3.2,3.6-4.2,5.8C4.5,46.6,4,49,4,51.6c0,15.5,0,31.1,0,46.7c0,2.6,0.5,5,1.5,7.2s2.4,4.2,4.2,5.8
		c1.8,1.6,3.9,2.9,6.3,3.7l10.4,3.3c13.1,4.2,26.3,8.5,39.6,12.8c13.4,4.3,26.7,8.6,40,12.8c4.1,1.3,8.2,1.9,12.2,1.9
		c4.1,0,8.2-0.6,12.1-1.8c13.6-4.3,27.2-8.7,40.9-13.1c13.7-4.4,27.2-8.8,40.5-13.1l9.3-3c2.3-0.8,4.3-1.9,6.1-3.6
		c1.8-1.6,3.1-3.6,4.1-5.8c1-2.2,1.5-4.5,1.5-7c0-5.5,0-10.9,0-16.3V52c0-2.8-0.5-5.3-1.5-7.5c-1-2.3-2.4-4.3-4.3-5.9
		c-1.8-1.6-4.1-2.9-6.7-3.7c-7.7-2.5-15.4-5-23.2-7.5c-10.8-3.5-21.6-7-32.6-10.5c-11-3.6-22-7.1-32.9-10.6
		C127.1,4.7,122.7,4,118.3,4 M118.5,150c-4.6,0-9.1-0.7-13.6-2.2c-13.3-4.2-26.7-8.5-40-12.8c-13.4-4.3-26.6-8.6-39.7-12.8
		l-10.4-3.3c-3-1-5.5-2.5-7.7-4.5c-2.2-2-3.9-4.4-5.2-7.2c-1.2-2.8-1.8-5.7-1.9-8.9c0-15.6,0-31.1,0-46.7c0-3.2,0.6-6.1,1.9-8.8
		C3.1,40,4.8,37.7,7,35.6c2.2-2,4.8-3.5,7.7-4.5l13.2-4.3c12.6-4.1,25.4-8.3,38.3-12.4C79.2,10.3,92,6.2,104.9,2.1
		C109.4,0.6,114,0,118.7,0c4.7,0,9.4,0.8,14.1,2.3c10.9,3.5,21.9,7.1,32.9,10.6c11,3.5,21.9,7.1,32.6,10.5c7.7,2.5,15.4,5,23.2,7.5
		c3.2,1,5.9,2.6,8.1,4.6c2.3,2,4,4.4,5.2,7.2c1.2,2.8,1.9,5.9,1.9,9.2v30.1c0,5.5,0,10.9,0,16.3c0,3.1-0.6,6-1.9,8.7
		c-1.2,2.7-2.9,5.1-5,7.1c-2.2,2-4.7,3.5-7.5,4.4l-9.3,3c-13.4,4.4-26.9,8.7-40.5,13.1c-13.7,4.4-27.3,8.8-40.9,13.1
		C127.3,149.3,122.9,150,118.5,150"/>
	<path class="st1" d="M228.2,75.1c0,7,0,14,0,21c0,2.5-0.5,4.8-1.6,7c-1,2.2-2.5,4.1-4.3,5.8c-1.8,1.6-4,2.8-6.5,3.6
		c-14.3,4.4-28.5,8.8-42.8,13.2c-14.3,4.4-28.5,8.7-42.8,13.1c-4,1.2-8,1.8-12.1,1.7c-4,0-8.1-0.6-12-1.8
		c-28.3-8.7-56.6-17.3-84.9-26.1c-2.6-0.8-4.8-2-6.7-3.7c-1.9-1.6-3.3-3.6-4.4-5.8c-1-2.2-1.6-4.6-1.6-7.2c0-14,0-28,0-41.9
		c0-2.5,0.6-4.9,1.6-7.1c1-2.2,2.5-4.2,4.4-5.8c1.9-1.6,4.1-2.9,6.6-3.7c28.4-8.8,56.7-17.5,85.1-26.1c4.2-1.3,8.4-1.9,12.6-1.8
		c4.2,0.1,8.4,0.7,12.6,2c27.9,8.6,55.8,17.2,83.7,25.8c2.7,0.8,5,2.1,7,3.7c1.9,1.6,3.4,3.6,4.5,5.9c1.1,2.3,1.6,4.8,1.6,7.5
		C228.2,61.2,228.2,68.1,228.2,75.1"/>
	<path class="st0" d="M217.4,84.3H121l-2.6-2.6l-2.6,2.6H19.4v0.9h96.4l2.6,2.6l2.6-2.6h96.3V84.3"/>
</g>
<g>
	<path class="st2" d="M87.3,72.3c1.7,0,3.4,0,5,0c2.3-0.1,3.6-1.6,3.7-3.9c0-0.8,0-1.7,0-2.5c0.1-1.6-0.5-2.8-2.1-3.5
		c1.4-1,1.6-1.4,1.8-3c0.1-0.8,0.1-1.6,0-2.4c-0.3-2.3-1.6-3.5-3.8-3.6c-1.5-0.1-3,0-4.6,0c-0.6,0-0.7,0.2-0.7,0.8
		c0,5.8,0,11.7,0,17.5C86.5,72.1,86.7,72.3,87.3,72.3z M89.5,55c2.8-0.1,4,0.6,4.1,2.3c0,0.6,0,1.1,0,1.7c0,1.5-0.9,2.4-2.4,2.6
		c-2.5,0.2-2.5,0.2-2.5-2.3c0-0.3,0-0.6,0-1c0-0.4-0.1-0.8,0-1.2C88.9,56.4,87.8,55.1,89.5,55z M89.6,63.1c3.3-0.2,4.1,0.8,4.3,2.6
		c0.1,0.8,0,1.6,0,2.4c0,1.4-0.8,2.2-2.1,2.5c-2.9,0.5-3.1,0.3-3.1-2.6c0-0.4,0-0.8,0-1.2c0-0.5-0.1-1,0-1.4
		C89,64.6,87.7,63.2,89.6,63.1z"/>
	<path class="st2" d="M152.4,52.9c-0.9-0.1-1.8-0.1-2.6,0c-2.3,0.3-3.6,1.7-3.6,4.1c0,3.9,0,7.7,0,11.6c0,2.2,1.1,3.5,3.2,4
		c1.3,0.3,2.5,0.3,3.8,0c2-0.5,3-1.8,3-3.9c0-2,0-3.9,0-5.9c0-1.9,0-3.8,0-5.7C156.2,54.6,154.9,53.1,152.4,52.9z M151.1,70.9
		c-2,0-2.8-0.7-2.8-2.4c0-1.9,0-3.8,0-5.7c0-1.9,0-3.8,0-5.6c0-1.7,0.9-2.4,2.8-2.5c2.1,0,3,0.7,3,2.4c0,3.8,0,7.7,0,11.5
		C154.1,70.3,153.2,70.9,151.1,70.9z"/>
	<path class="st2" d="M112,59.6c-0.8-0.8-1.2-1.7-1.1-2.8c0.1-1.4,0.8-2.1,2.4-2.2c1.9-0.1,2.8,0.5,3,2c0.1,0.7,0,1.4,0.1,2
		c0,0.3-0.1,0.6,0.4,0.8c1.1,0.4,1.7-0.1,1.7-1.2c0-0.2,0-0.5,0-0.7s0-0.5,0-0.7c-0.1-2.2-1.1-3.4-3.2-3.9c-2.7-0.6-5.2,0.3-6.1,2
		c-0.1,0.3-0.3,0.6-0.3,0.9c-0.3,1.9-0.1,3.6,1.4,5.1c1.7,1.7,3.4,3.4,5.1,5c1.1,1.1,1.6,2.9,0.9,3.9c-0.8,1.3-2.2,1.2-3.4,1
		c-1.4-0.1-2-0.8-2-2.2c0-0.6,0-1.1,0-1.7c0-0.6-0.2-0.8-0.8-0.9c-1.1-0.1-1.6,0.2-1.4,1.4c0.1,0.4,0,0.9,0,1.3
		c0.1,2.3,1.3,3.6,3.6,3.9c1,0.1,1.9,0.1,2.9,0c1.6-0.2,3-0.9,3.4-2.6c0.5-2,0.2-4-1.4-5.5C115.3,62.9,113.7,61.2,112,59.6z"/>
	<path class="st2" d="M129.9,65.5c-0.5,0-1.2-0.3-1.1,0.7c0,1,0,2,0,3c0,1-0.5,1.7-1.6,1.7c-1.1,0-1.5-0.8-1.5-1.8
		c0-4.5,0-8.9,0-13.4c0-0.5,0.2-0.7,0.7-0.7c1,0,2,0,3,0c0.7,0,0.7-0.4,0.7-0.9c0-0.5,0-0.9-0.8-0.9c-1.6,0-3.2,0.1-4.8,0
		c-0.8,0-1,0.3-1,1c0,2.5,0,4.9,0,7.4c0,0,0,0,0,0c0,2.6-0.1,5.1,0,7.7c0.1,2.2,1.4,3.4,3.6,3.4c2.2,0,3.5-1.2,3.7-3.4
		c0.1-1,0-2.1,0-3.1C130.9,65.4,130.4,65.5,129.9,65.5z"/>
	<path class="st2" d="M143.2,57.4c-0.1-0.5,0-1-0.1-1.6c-0.3-2.2-1.7-3.3-3.9-3c-1.3,0.2-1.9,1.2-2.6,2.4c-0.2-0.4-0.3-0.7-0.4-1
		c-0.2-0.5-0.3-1.1-1-0.9c-0.6,0.2-0.3,0.7-0.3,1.1c0,5.6,0,11.2,0,16.8c0,0.9,0.2,1.2,1.1,1.1c0.9,0,1.1-0.3,1.1-1.1
		c0-4.2,0-8.4,0-12.6c0-1.4,0.3-2.6,1.4-3.5c0.5-0.5,1.2-0.5,1.8-0.3c0.6,0.2,0.8,0.7,0.9,1.3c0,0.6,0.1,1.2,0,1.8
		c0,0.5,0.1,0.7,0.7,0.7C142.7,58.6,143.4,58.6,143.2,57.4z"/>
	<path class="st2" d="M139.2,99.7c1.1-0.8,1.7-1.8,1.2-3.2c-0.5-1.3-1.4-2.1-2.7-2.2c-1.5-0.1-3-0.1-4.5-0.1c-0.3,0-0.7-0.1-0.7,0.4
		c0,0.3-0.1,0.8,0.4,0.8c0.6,0,0.6,0.4,0.6,0.8c0,2.3,0,4.6,0,6.8c0,0.3,0.1,0.8-0.5,0.8c-0.6,0-0.6,0.4-0.5,0.8
		c0,0.6,0.5,0.5,0.8,0.5c1.3,0,2.6,0,4,0c1.7,0,2.7-0.8,3.2-2.2C141,101.6,140.4,100.6,139.2,99.7z M135.7,95.5c0.6,0,1.1,0,1.7,0
		c1,0.1,1.7,1,1.7,2c-0.1,1.1-0.7,1.5-1.7,1.6c-0.2,0-0.3,0-0.5,0c-1.8,0-1.8,0-1.8-1.8c0-0.4,0-0.7,0-1.1
		C135,95.7,135.2,95.5,135.7,95.5z M137.2,103.9c-0.2,0-0.4,0-0.8,0c-1.1,0.3-1.5-0.2-1.4-1.5c0.1-2.3,0-2.3,2.3-2.1
		c1.2,0.1,1.9,0.7,1.9,1.7C139.1,103.2,138.3,103.9,137.2,103.9z"/>
	<path class="st2" d="M127.4,103.8c-1.1-0.8-1.5-1.6-0.7-2.8c0.1-0.1,0.1-0.2,0.1-0.3c0-0.3,0.5-0.7-0.2-0.8
		c-0.4-0.1-0.8-0.2-1.1,0.4c-0.5,1.4-0.6,1.4-1.6,0.4c-0.3-0.3-0.6-0.5-0.9-0.9c2.1-1.6,2.6-3,1.6-4.4c-0.9-1.3-2.7-1.6-4-0.7
		c-0.6,0.4-1,0.9-1.1,1.6c-0.3,1.3,0.5,2.1,1.3,3c-1.4,0.8-2.2,1.9-1.8,3.5c0.3,1.4,1.2,2.2,2.6,2.5c1.3,0.2,2.4-0.2,3.3-1.1
		c0.5-0.5,0.8-0.5,1.2,0c0.1,0.2,0.4,0.3,0.5,0.5c0.4,0.5,0.8,0.4,1.2,0C128.2,104.2,127.7,104,127.4,103.8z M120.7,96.6
		c0-0.7,0.5-1.2,1.4-1.3c0.8-0.1,1.7,0.6,1.7,1.4c0.1,0.7-0.9,1.8-1.7,1.9C121.6,98.7,120.7,97.7,120.7,96.6z M123,103.9
		c-0.3,0.1-0.5,0.1-0.7,0.2c-1.5,0-2.5-1.3-2.1-2.6c0.4-1.1,1.4-1.4,2.2-0.6c0.3,0.3,0.7,0.6,1,1C124.6,102.9,124.5,103.4,123,103.9
		z"/>
	<path class="st2" d="M102.4,72.3c0.8,0,1.1-0.2,1.1-1c0-5.7,0-11.3,0-17c0-0.8-0.2-1.1-1.1-1.1c-0.8,0-1.1,0.1-1.1,1
		c0.1,2.8,0,5.6,0,8.4c0,2.9,0,5.7,0,8.6C101.3,72.1,101.6,72.3,102.4,72.3z"/>
	<path class="st2" d="M91.6,95.9c-0.1,0-0.2-0.2-0.3-0.2c-1.7-1.6-3.6-2-5.7-1c-2.1,1-3,2.9-3,5.2c0,0.2,0,0.4,0,0.6
		c0.1,2.3,1.7,4.3,3.8,4.9c2.1,0.6,4.4-0.2,5.6-2c0.2-0.3,0.8-0.6,0.1-1.1c-0.5-0.3-0.9-0.4-1.3,0.3c-1,1.5-2.7,2.1-4.3,1.4
		c-1.5-0.6-2.4-2.1-2.4-3.9c0-1.9,0.6-3.4,2.4-4.2c1.6-0.7,3.1-0.2,4.1,1.1c0.4,0.5,0.9,0.3,1.4,0.3c0.4,0,0.3-0.3,0.4-0.6
		C92.5,95.9,92,96,91.6,95.9z"/>
	<path class="st2" d="M148.2,104c-0.9-0.2-0.6-0.9-0.6-1.4c0-0.6,0-1.1,0-1.7c0-3-2.3-4.3-4.9-2.8c-0.3,0.2-0.5,0.3-0.3,0.7
		c0.2,0.4,0.4,0.4,0.7,0.3c0.6-0.3,1.3-0.3,2-0.2c0.9,0.1,1.2,0.7,1.2,1.5c0,1-0.8,0.2-1.1,0.4c-0.8,0-1.5,0.1-2.2,0.4
		c-1,0.5-1.4,1.3-1.3,2.3c0.2,1.1,0.9,1.7,2,1.8c0.7,0.1,1.4,0,2-0.3c0.2-0.1,0.4-0.4,0.6-0.2c0.4,0.7,1.1,0.3,1.6,0.4
		c0.2,0,0.5,0,0.6-0.3C148.3,104.6,148.5,104.1,148.2,104z M146.2,102.8c0,0.9-0.8,1.6-1.8,1.5c-0.8,0-1.4-0.3-1.4-1.2
		c0-0.9,0.8-1.3,2.4-1.3C146.1,101.6,146.2,102.1,146.2,102.8z"/>
	<path class="st2" d="M99.9,104.1c-1-0.2-0.6-0.9-0.7-1.5c0-0.8,0-1.6,0-2.4c-0.1-1.6-0.9-2.4-2.6-2.5c-0.7,0-1.4,0.1-2.1,0.4
		c-0.3,0.1-0.9,0.1-0.6,0.8c0.2,0.6,0.6,0.4,0.9,0.3c0.7-0.3,1.3-0.3,2-0.2c0.8,0.2,1.1,0.8,1,1.6c-0.1,0.9-0.8,0.1-1,0.4
		c-0.8-0.1-1.6,0-2.4,0.4c-0.9,0.5-1.3,1.3-1.1,2.3c0.2,1,0.8,1.6,1.8,1.8c0.7,0.1,1.4,0.1,2.1-0.3c0.2-0.1,0.5-0.4,0.6-0.2
		c0.4,0.9,1.1,0.3,1.7,0.4c0.2,0.1,0.5,0,0.5-0.3C100.1,104.6,100.2,104.1,99.9,104.1z M98,102.7c-0.1,1-0.7,1.7-1.9,1.6
		c-0.8,0-1.4-0.3-1.5-1.2c0-0.9,0.8-1.3,2.4-1.3C97.6,101.7,98,101.8,98,102.7z"/>
	<path class="st2" d="M111.3,97.7c-1.4-0.3-2.8-0.2-3.7,1.1c-1.1,1.5-1.1,3.1-0.4,4.8c0.6,1.3,1.7,1.9,3.2,1.8
		c0.7,0.1,1.4-0.1,2-0.5c0.3-0.2,1-0.1,0.7-0.9c-0.3-0.7-0.7-0.4-1.1-0.2c-0.6,0.3-1.3,0.4-2,0.3c-0.9-0.1-1.5-0.7-1.8-1.6
		c-0.2-0.6-0.1-0.9,0.6-0.9c1.3,0,2.6,0,3.8,0c0.3,0,0.7,0.1,0.8-0.5C113.7,99.9,112.6,98,111.3,97.7z M110.8,100.7
		c-0.2,0-0.5,0-0.7,0c-0.2,0-0.4,0-0.6,0c-0.4-0.1-1,0.3-1.1-0.3c-0.1-0.5,0.2-1,0.7-1.3c0.6-0.5,1.3-0.5,2-0.2
		c0.7,0.2,1.1,0.9,1,1.5C111.9,101,111.2,100.6,110.8,100.7z"/>
	<path class="st2" d="M105.1,95.2c0.4,0,0.8,0,1.2,0.1c0.5,0.1,0.5-0.2,0.6-0.5c0.1-0.3-0.1-0.4-0.4-0.5c-1.9-0.9-3.8,0.2-3.9,2.4
		c0,0.6,0.2,1.3-0.8,1.1c-0.4,0-0.4,0.3-0.4,0.6c0,0.3,0,0.5,0.4,0.5c1.1-0.2,0.9,0.6,0.9,1.2c0,1,0,2.1,0,3.1c0,0.5,0,0.9-0.7,0.8
		c-0.6-0.1-0.5,0.4-0.5,0.7c0,0.4,0.2,0.5,0.6,0.5c0.4,0,0.8,0,1.2,0c0.4,0,0.8,0,1.2,0c0.4,0,0.6-0.1,0.6-0.5
		c0-0.3,0.1-0.8-0.5-0.8c-0.7,0-0.6-0.4-0.6-0.9c0-1,0-2.1,0-3.1c0-0.8,0.1-1.2,1-1.1c0.3,0,0.7,0.1,0.8-0.5c0-0.6-0.3-0.7-0.8-0.6
		c-0.7,0.1-1.1-0.1-1-0.9C104.1,96.1,104.1,95.3,105.1,95.2z"/>
	<path class="st2" d="M153.2,97.9c-0.4,0.2-0.6,0.6-1.2,0c-0.3-0.3-1.2-0.1-1.8-0.1c-0.3,0-0.3,0.3-0.3,0.6c0,0.3,0,0.7,0.3,0.6
		c0.9,0,0.7,0.5,0.7,1c0,1,0,2,0,3c0,0.4,0.1,0.9-0.6,0.9c-0.6,0-0.4,0.5-0.4,0.8c0,0.5,0.3,0.5,0.7,0.5c0.7,0,1.4,0,2.2,0
		c0.4,0,0.8,0.1,0.9-0.5c0-0.5-0.1-0.9-0.7-0.8c-0.5,0.1-0.6-0.3-0.6-0.7c0-0.4,0-0.8,0-1.2c0,0,0,0,0,0c0-0.5,0-1,0-1.6
		c0.1-1.2,0.6-1.4,1.8-1.2c0.7,0.2,1.3,0.1,1.2-0.9C155.1,97.7,154.2,97.4,153.2,97.9z"/>
</g>
</svg>
